<svg width="2483" height="1555" xmlns="http://www.w3.org/2000/svg" xmlns:xlink="http://www.w3.org/1999/xlink" xml:space="preserve" overflow="hidden"><defs><clipPath id="clip0"><rect x="3934" y="3295" width="2483" height="1555"/></clipPath></defs><g clip-path="url(#clip0)" transform="translate(-3934 -3295)"><rect x="3935" y="3296" width="2480" height="1552" fill="#FFFFFF"/><g><path d="M4142.5 4405.64 6344.5 4405.64M4142.5 4271.64 6344.5 4271.64M4142.5 4137.64 6344.5 4137.64M4142.5 4003.63 6344.5 4003.63M4142.5 3868.63 6344.5 3868.63M4142.5 3734.62 6344.5 3734.62M4142.5 3600.62 6344.5 3600.62M4142.5 3466.5 6344.5 3466.5" stroke="#D9D9D9" stroke-width="3.4375" stroke-linejoin="round" stroke-miterlimit="10" fill="none"/></g><g><path d="M4386.64 3466.5 4386.64 4540.5M4631.65 3466.5 4631.65 4540.5M4876.66 3466.5 4876.66 4540.5M5120.67 3466.5 5120.67 4540.5M5365.68 3466.5 5365.68 4540.5M5610.68 3466.5 5610.68 4540.5M5854.69 3466.5 5854.69 4540.5M6099.7 3466.5 6099.7 4540.5M6344.5 3466.5 6344.5 4540.5" stroke="#D9D9D9" stroke-width="3.4375" stroke-linejoin="round" stroke-miterlimit="10" fill="none"/></g><g><path d="M0 0 0.000360892 1074" stroke="#BFBFBF" stroke-width="3.4375" stroke-linejoin="round" stroke-miterlimit="10" fill="none" fill-rule="evenodd" transform="matrix(1 0 0 -1 4142.5 4540.5)"/></g><g><path d="M4142.5 4540.5 6344.5 4540.5" stroke="#BFBFBF" stroke-width="3.4375" stroke-linejoin="round" stroke-miterlimit="10" fill="none" fill-rule="evenodd"/></g><g><path d="M4142.5 4538.5 4191.64 4518.65 4240.64 4490.65 4288.64 4467.65 4337.64 4438.65 4386.64 4412.65 4435.65 4389.64 4484.65 4360.64 4533.65 4337.64 4582.65 4308.64 4631.65 4285.64 4680.65 4256.64 4729.66 4233.64 4778.66 4204.64 4827.66 4178.64 4876.66 4155.64 4925.66 4127.64 4973.66 4101.63 5022.67 4077.63 5071.67 4049.63 5120.67 4025.63 5169.67 4001.63 5218.67 3971.63 5267.67 3947.63 5316.67 3919.63 5365.68 3895.63 5414.68 3867.63 5463.68 3841.63 5512.68 3817.63 5561.68 3791.62 5610.68 3763.62 5658.69 3737.62 5707.69 3711.62 5756.69 3687.62 5805.69 3659.62 5854.69 3633.62 5903.69 3607.62 5952.7 3584.62 6001.7 3555.62 6050.5 3529.5" stroke="#156082" stroke-width="6.875" stroke-linecap="round" stroke-linejoin="round" stroke-miterlimit="10" fill="none"/></g><g><path d="M4150.93 4538.07C4150.93 4542.77 4147.12 4546.57 4142.43 4546.57 4137.73 4546.57 4133.93 4542.77 4133.93 4538.07 4133.93 4533.38 4137.73 4529.57 4142.43 4529.57 4147.12 4529.57 4150.93 4533.38 4150.93 4538.07Z" stroke="#156082" stroke-width="3.4375" stroke-linejoin="round" stroke-miterlimit="10" fill="#156082"/><path d="M4199.93 4519.07C4199.93 4523.77 4196.12 4527.57 4191.43 4527.57 4186.74 4527.57 4182.93 4523.77 4182.93 4519.07 4182.93 4514.38 4186.74 4510.57 4191.43 4510.57 4196.12 4510.57 4199.93 4514.38 4199.93 4519.07Z" stroke="#156082" stroke-width="3.4375" stroke-linejoin="round" stroke-miterlimit="10" fill="#156082"/><path d="M4248.93 4490.07C4248.93 4494.77 4245.12 4498.57 4240.43 4498.57 4235.73 4498.57 4231.93 4494.77 4231.93 4490.07 4231.93 4485.38 4235.73 4481.57 4240.43 4481.57 4245.12 4481.57 4248.93 4485.38 4248.93 4490.07Z" stroke="#156082" stroke-width="3.4375" stroke-linejoin="round" stroke-miterlimit="10" fill="#156082"/><path d="M4297.93 4467.07C4297.93 4471.77 4294.12 4475.57 4289.43 4475.57 4284.74 4475.57 4280.93 4471.77 4280.93 4467.07 4280.93 4462.38 4284.74 4458.57 4289.43 4458.57 4294.12 4458.57 4297.93 4462.38 4297.93 4467.07Z" stroke="#156082" stroke-width="3.4375" stroke-linejoin="round" stroke-miterlimit="10" fill="#156082"/><path d="M4346.93 4438.07C4346.93 4442.77 4343.12 4446.57 4338.43 4446.57 4333.73 4446.57 4329.93 4442.77 4329.93 4438.07 4329.93 4433.38 4333.73 4429.57 4338.43 4429.57 4343.12 4429.57 4346.93 4433.38 4346.93 4438.07Z" stroke="#156082" stroke-width="3.4375" stroke-linejoin="round" stroke-miterlimit="10" fill="#156082"/><path d="M4394.93 4412.07C4394.93 4416.77 4391.12 4420.57 4386.43 4420.57 4381.73 4420.57 4377.93 4416.77 4377.93 4412.07 4377.93 4407.38 4381.73 4403.57 4386.43 4403.57 4391.12 4403.57 4394.93 4407.38 4394.93 4412.07Z" stroke="#156082" stroke-width="3.4375" stroke-linejoin="round" stroke-miterlimit="10" fill="#156082"/><path d="M4443.93 4389.07C4443.93 4393.77 4440.12 4397.57 4435.43 4397.57 4430.73 4397.57 4426.93 4393.77 4426.93 4389.07 4426.93 4384.38 4430.73 4380.57 4435.43 4380.57 4440.12 4380.57 4443.93 4384.38 4443.93 4389.07Z" stroke="#156082" stroke-width="3.4375" stroke-linejoin="round" stroke-miterlimit="10" fill="#156082"/><path d="M4492.93 4360.07C4492.93 4364.77 4489.12 4368.57 4484.43 4368.57 4479.73 4368.57 4475.93 4364.77 4475.93 4360.07 4475.93 4355.38 4479.73 4351.57 4484.43 4351.57 4489.12 4351.57 4492.93 4355.38 4492.93 4360.07Z" stroke="#156082" stroke-width="3.4375" stroke-linejoin="round" stroke-miterlimit="10" fill="#156082"/><path d="M4541.93 4337.07C4541.93 4341.77 4538.12 4345.57 4533.43 4345.57 4528.73 4345.57 4524.93 4341.77 4524.93 4337.07 4524.93 4332.38 4528.73 4328.57 4533.43 4328.57 4538.12 4328.57 4541.93 4332.38 4541.93 4337.07Z" stroke="#156082" stroke-width="3.4375" stroke-linejoin="round" stroke-miterlimit="10" fill="#156082"/><path d="M4590.93 4308.07C4590.93 4312.77 4587.12 4316.57 4582.43 4316.57 4577.73 4316.57 4573.93 4312.77 4573.93 4308.07 4573.93 4303.38 4577.73 4299.57 4582.43 4299.57 4587.12 4299.57 4590.93 4303.38 4590.93 4308.07Z" stroke="#156082" stroke-width="3.4375" stroke-linejoin="round" stroke-miterlimit="10" fill="#156082"/><path d="M4639.93 4285.07C4639.93 4289.77 4636.12 4293.57 4631.43 4293.57 4626.74 4293.57 4622.93 4289.77 4622.93 4285.07 4622.93 4280.38 4626.74 4276.57 4631.43 4276.57 4636.12 4276.57 4639.93 4280.38 4639.93 4285.07Z" stroke="#156082" stroke-width="3.4375" stroke-linejoin="round" stroke-miterlimit="10" fill="#156082"/><path d="M4688.93 4257.07C4688.93 4261.77 4685.12 4265.57 4680.43 4265.57 4675.73 4265.57 4671.93 4261.77 4671.93 4257.07 4671.93 4252.38 4675.73 4248.57 4680.43 4248.57 4685.12 4248.57 4688.93 4252.38 4688.93 4257.07Z" stroke="#156082" stroke-width="3.4375" stroke-linejoin="round" stroke-miterlimit="10" fill="#156082"/><path d="M4737.93 4233.07C4737.93 4237.77 4734.12 4241.57 4729.43 4241.57 4724.74 4241.57 4720.93 4237.77 4720.93 4233.07 4720.93 4228.38 4724.74 4224.57 4729.43 4224.57 4734.12 4224.57 4737.93 4228.38 4737.93 4233.07Z" stroke="#156082" stroke-width="3.4375" stroke-linejoin="round" stroke-miterlimit="10" fill="#156082"/><path d="M4786.93 4205.07C4786.93 4209.77 4783.12 4213.57 4778.43 4213.57 4773.73 4213.57 4769.93 4209.77 4769.93 4205.07 4769.93 4200.38 4773.73 4196.57 4778.43 4196.57 4783.12 4196.57 4786.93 4200.38 4786.93 4205.07Z" stroke="#156082" stroke-width="3.4375" stroke-linejoin="round" stroke-miterlimit="10" fill="#156082"/><path d="M4835.93 4179.07C4835.93 4183.77 4832.12 4187.57 4827.43 4187.57 4822.74 4187.57 4818.93 4183.77 4818.93 4179.07 4818.93 4174.38 4822.74 4170.57 4827.43 4170.57 4832.12 4170.57 4835.93 4174.38 4835.93 4179.07Z" stroke="#156082" stroke-width="3.4375" stroke-linejoin="round" stroke-miterlimit="10" fill="#156082"/><path d="M4884.93 4155.07C4884.93 4159.77 4881.12 4163.57 4876.43 4163.57 4871.73 4163.57 4867.93 4159.77 4867.93 4155.07 4867.93 4150.38 4871.73 4146.57 4876.43 4146.57 4881.12 4146.57 4884.93 4150.38 4884.93 4155.07Z" stroke="#156082" stroke-width="3.4375" stroke-linejoin="round" stroke-miterlimit="10" fill="#156082"/><path d="M4933.93 4127.07C4933.93 4131.77 4930.12 4135.57 4925.43 4135.57 4920.73 4135.57 4916.93 4131.77 4916.93 4127.07 4916.93 4122.38 4920.73 4118.57 4925.43 4118.57 4930.12 4118.57 4933.93 4122.38 4933.93 4127.07Z" stroke="#156082" stroke-width="3.4375" stroke-linejoin="round" stroke-miterlimit="10" fill="#156082"/><path d="M4982.93 4101.07C4982.93 4105.77 4979.12 4109.57 4974.43 4109.57 4969.73 4109.57 4965.93 4105.77 4965.93 4101.07 4965.93 4096.38 4969.73 4092.57 4974.43 4092.57 4979.12 4092.57 4982.93 4096.38 4982.93 4101.07Z" stroke="#156082" stroke-width="3.4375" stroke-linejoin="round" stroke-miterlimit="10" fill="#156082"/><path d="M5031.93 4077.07C5031.93 4081.77 5028.12 4085.57 5023.43 4085.57 5018.73 4085.57 5014.93 4081.77 5014.93 4077.07 5014.93 4072.38 5018.73 4068.57 5023.43 4068.57 5028.12 4068.57 5031.93 4072.38 5031.93 4077.07Z" stroke="#156082" stroke-width="3.4375" stroke-linejoin="round" stroke-miterlimit="10" fill="#156082"/><path d="M5079.93 4049.07C5079.93 4053.76 5076.12 4057.57 5071.43 4057.57 5066.74 4057.57 5062.93 4053.76 5062.93 4049.07 5062.93 4044.38 5066.74 4040.57 5071.43 4040.57 5076.12 4040.57 5079.93 4044.38 5079.93 4049.07Z" stroke="#156082" stroke-width="3.4375" stroke-linejoin="round" stroke-miterlimit="10" fill="#156082"/><path d="M5128.93 4025.07C5128.93 4029.77 5125.12 4033.57 5120.43 4033.57 5115.73 4033.57 5111.93 4029.77 5111.93 4025.07 5111.93 4020.38 5115.73 4016.57 5120.43 4016.57 5125.12 4016.57 5128.93 4020.38 5128.93 4025.07Z" stroke="#156082" stroke-width="3.4375" stroke-linejoin="round" stroke-miterlimit="10" fill="#156082"/><path d="M5177.93 4002.07C5177.93 4006.77 5174.12 4010.57 5169.43 4010.57 5164.74 4010.57 5160.93 4006.77 5160.93 4002.07 5160.93 3997.38 5164.74 3993.57 5169.43 3993.57 5174.12 3993.57 5177.93 3997.38 5177.93 4002.07Z" stroke="#156082" stroke-width="3.4375" stroke-linejoin="round" stroke-miterlimit="10" fill="#156082"/><path d="M5226.93 3971.07C5226.93 3975.77 5223.12 3979.57 5218.43 3979.57 5213.73 3979.57 5209.93 3975.77 5209.93 3971.07 5209.93 3966.38 5213.73 3962.57 5218.43 3962.57 5223.12 3962.57 5226.93 3966.38 5226.93 3971.07Z" stroke="#156082" stroke-width="3.4375" stroke-linejoin="round" stroke-miterlimit="10" fill="#156082"/><path d="M5275.93 3947.07C5275.93 3951.77 5272.12 3955.57 5267.43 3955.57 5262.74 3955.57 5258.93 3951.77 5258.93 3947.07 5258.93 3942.38 5262.74 3938.57 5267.43 3938.57 5272.12 3938.57 5275.93 3942.38 5275.93 3947.07Z" stroke="#156082" stroke-width="3.4375" stroke-linejoin="round" stroke-miterlimit="10" fill="#156082"/><path d="M5324.93 3919.07C5324.93 3923.76 5321.12 3927.57 5316.43 3927.57 5311.73 3927.57 5307.93 3923.76 5307.93 3919.07 5307.93 3914.38 5311.73 3910.57 5316.43 3910.57 5321.12 3910.57 5324.93 3914.38 5324.93 3919.07Z" stroke="#156082" stroke-width="3.4375" stroke-linejoin="round" stroke-miterlimit="10" fill="#156082"/><path d="M5373.93 3895.07C5373.93 3899.76 5370.12 3903.57 5365.43 3903.57 5360.73 3903.57 5356.93 3899.76 5356.93 3895.07 5356.93 3890.38 5360.73 3886.57 5365.43 3886.57 5370.12 3886.57 5373.93 3890.38 5373.93 3895.07Z" stroke="#156082" stroke-width="3.4375" stroke-linejoin="round" stroke-miterlimit="10" fill="#156082"/><path d="M5422.93 3867.07C5422.93 3871.77 5419.12 3875.57 5414.43 3875.57 5409.73 3875.57 5405.93 3871.77 5405.93 3867.07 5405.93 3862.38 5409.73 3858.57 5414.43 3858.57 5419.12 3858.57 5422.93 3862.38 5422.93 3867.07Z" stroke="#156082" stroke-width="3.4375" stroke-linejoin="round" stroke-miterlimit="10" fill="#156082"/><path d="M5471.93 3841.07C5471.93 3845.76 5468.12 3849.57 5463.43 3849.57 5458.73 3849.57 5454.93 3845.76 5454.93 3841.07 5454.93 3836.38 5458.73 3832.57 5463.43 3832.57 5468.12 3832.57 5471.93 3836.38 5471.93 3841.07Z" stroke="#156082" stroke-width="3.4375" stroke-linejoin="round" stroke-miterlimit="10" fill="#156082"/><path d="M5520.93 3817.07C5520.93 3821.77 5517.12 3825.57 5512.43 3825.57 5507.73 3825.57 5503.93 3821.77 5503.93 3817.07 5503.93 3812.38 5507.73 3808.57 5512.43 3808.57 5517.12 3808.57 5520.93 3812.38 5520.93 3817.07Z" stroke="#156082" stroke-width="3.4375" stroke-linejoin="round" stroke-miterlimit="10" fill="#156082"/><path d="M5569.93 3791.07C5569.93 3795.77 5566.12 3799.57 5561.43 3799.57 5556.73 3799.57 5552.93 3795.77 5552.93 3791.07 5552.93 3786.38 5556.73 3782.57 5561.43 3782.57 5566.12 3782.57 5569.93 3786.38 5569.93 3791.07Z" stroke="#156082" stroke-width="3.4375" stroke-linejoin="round" stroke-miterlimit="10" fill="#156082"/><path d="M5618.93 3763.07C5618.93 3767.76 5615.12 3771.57 5610.43 3771.57 5605.74 3771.57 5601.93 3767.76 5601.93 3763.07 5601.93 3758.38 5605.74 3754.57 5610.43 3754.57 5615.12 3754.57 5618.93 3758.38 5618.93 3763.07Z" stroke="#156082" stroke-width="3.4375" stroke-linejoin="round" stroke-miterlimit="10" fill="#156082"/><path d="M5667.93 3737.07C5667.93 3741.77 5664.12 3745.57 5659.43 3745.57 5654.73 3745.57 5650.93 3741.77 5650.93 3737.07 5650.93 3732.38 5654.73 3728.57 5659.43 3728.57 5664.12 3728.57 5667.93 3732.38 5667.93 3737.07Z" stroke="#156082" stroke-width="3.4375" stroke-linejoin="round" stroke-miterlimit="10" fill="#156082"/><path d="M5716.93 3711.07C5716.93 3715.77 5713.12 3719.57 5708.43 3719.57 5703.74 3719.57 5699.93 3715.77 5699.93 3711.07 5699.93 3706.38 5703.74 3702.57 5708.43 3702.57 5713.12 3702.57 5716.93 3706.38 5716.93 3711.07Z" stroke="#156082" stroke-width="3.4375" stroke-linejoin="round" stroke-miterlimit="10" fill="#156082"/><path d="M5765.93 3688.07C5765.93 3692.76 5762.12 3696.57 5757.43 3696.57 5752.73 3696.57 5748.93 3692.76 5748.93 3688.07 5748.93 3683.38 5752.73 3679.57 5757.43 3679.57 5762.12 3679.57 5765.93 3683.38 5765.93 3688.07Z" stroke="#156082" stroke-width="3.4375" stroke-linejoin="round" stroke-miterlimit="10" fill="#156082"/><path d="M5813.93 3659.07C5813.93 3663.77 5810.12 3667.57 5805.43 3667.57 5800.73 3667.57 5796.93 3663.77 5796.93 3659.07 5796.93 3654.38 5800.73 3650.57 5805.43 3650.57 5810.12 3650.57 5813.93 3654.38 5813.93 3659.07Z" stroke="#156082" stroke-width="3.4375" stroke-linejoin="round" stroke-miterlimit="10" fill="#156082"/><path d="M5862.93 3633.07C5862.93 3637.76 5859.12 3641.57 5854.43 3641.57 5849.73 3641.57 5845.93 3637.76 5845.93 3633.07 5845.93 3628.38 5849.73 3624.57 5854.43 3624.57 5859.12 3624.57 5862.93 3628.38 5862.93 3633.07Z" stroke="#156082" stroke-width="3.4375" stroke-linejoin="round" stroke-miterlimit="10" fill="#156082"/><path d="M5911.93 3607.07C5911.93 3611.77 5908.12 3615.57 5903.43 3615.57 5898.73 3615.57 5894.93 3611.77 5894.93 3607.07 5894.93 3602.38 5898.73 3598.57 5903.43 3598.57 5908.12 3598.57 5911.93 3602.38 5911.93 3607.07Z" stroke="#156082" stroke-width="3.4375" stroke-linejoin="round" stroke-miterlimit="10" fill="#156082"/><path d="M5960.93 3584.07C5960.93 3588.77 5957.12 3592.57 5952.43 3592.57 5947.73 3592.57 5943.93 3588.77 5943.93 3584.07 5943.93 3579.38 5947.73 3575.57 5952.43 3575.57 5957.12 3575.57 5960.93 3579.38 5960.93 3584.07Z" stroke="#156082" stroke-width="3.4375" stroke-linejoin="round" stroke-miterlimit="10" fill="#156082"/><path d="M6009.93 3555.07C6009.93 3559.76 6006.12 3563.57 6001.43 3563.57 5996.73 3563.57 5992.93 3559.76 5992.93 3555.07 5992.93 3550.38 5996.73 3546.57 6001.43 3546.57 6006.12 3546.57 6009.93 3550.38 6009.93 3555.07Z" stroke="#156082" stroke-width="3.4375" stroke-linejoin="round" stroke-miterlimit="10" fill="#156082"/><path d="M6058.93 3529.07C6058.93 3533.77 6055.12 3537.57 6050.43 3537.57 6045.74 3537.57 6041.93 3533.77 6041.93 3529.07 6041.93 3524.38 6045.74 3520.57 6050.43 3520.57 6055.12 3520.57 6058.93 3524.38 6058.93 3529.07Z" stroke="#156082" stroke-width="3.4375" stroke-linejoin="round" stroke-miterlimit="10" fill="#156082"/></g><g><path d="M4142.5 4540.5 4191.64 4514.65 4240.64 4488.65 4288.64 4462.65 4337.64 4436.65 4386.64 4410.65 4435.65 4384.64 4484.65 4358.64 4533.65 4332.64 4582.65 4306.64 4631.65 4280.64 4680.65 4254.64 4729.66 4228.64 4778.66 4202.64 4827.66 4176.64 4876.66 4150.64 4925.66 4124.64 4973.66 4098.63 5022.67 4072.63 5071.67 4046.63 5120.67 4020.63 5169.67 3994.63 5218.67 3968.63 5267.67 3942.63 5316.67 3916.63 5365.68 3890.63 5414.68 3864.63 5463.68 3838.63 5512.68 3813.63 5561.68 3787.62 5610.68 3761.62 5658.69 3735.62 5707.69 3709.62 5756.69 3683.62 5805.69 3657.62 5854.69 3631.62 5903.69 3605.62 5952.7 3579.62 6001.7 3553.62 6050.5 3527.5" stroke="#E97132" stroke-width="3.4375" stroke-linecap="round" stroke-linejoin="round" stroke-miterlimit="10" stroke-dasharray="24.0625 13.75" fill="none"/></g><g><path d="M4142.93 4531.57 4151.93 4549.57 4133.93 4549.57Z" stroke="#E97132" stroke-width="3.4375" stroke-linejoin="round" stroke-miterlimit="10" fill="#E97132"/><path d="M4191.93 4505.57 4200.93 4523.57 4182.93 4523.57Z" stroke="#E97132" stroke-width="3.4375" stroke-linejoin="round" stroke-miterlimit="10" fill="#E97132"/><path d="M4240.93 4479.57 4249.93 4497.57 4231.93 4497.57Z" stroke="#E97132" stroke-width="3.4375" stroke-linejoin="round" stroke-miterlimit="10" fill="#E97132"/><path d="M4289.93 4453.57 4298.93 4471.57 4280.93 4471.57Z" stroke="#E97132" stroke-width="3.4375" stroke-linejoin="round" stroke-miterlimit="10" fill="#E97132"/><path d="M4338.93 4427.57 4347.93 4445.57 4329.93 4445.57Z" stroke="#E97132" stroke-width="3.4375" stroke-linejoin="round" stroke-miterlimit="10" fill="#E97132"/><path d="M4386.93 4401.57 4395.93 4419.57 4377.93 4419.57Z" stroke="#E97132" stroke-width="3.4375" stroke-linejoin="round" stroke-miterlimit="10" fill="#E97132"/><path d="M4435.93 4375.57 4444.93 4393.57 4426.93 4393.57Z" stroke="#E97132" stroke-width="3.4375" stroke-linejoin="round" stroke-miterlimit="10" fill="#E97132"/><path d="M4484.93 4349.57 4493.93 4367.57 4475.93 4367.57Z" stroke="#E97132" stroke-width="3.4375" stroke-linejoin="round" stroke-miterlimit="10" fill="#E97132"/><path d="M4533.93 4323.57 4542.93 4341.57 4524.93 4341.57Z" stroke="#E97132" stroke-width="3.4375" stroke-linejoin="round" stroke-miterlimit="10" fill="#E97132"/><path d="M4582.93 4297.57 4591.93 4315.57 4573.93 4315.57Z" stroke="#E97132" stroke-width="3.4375" stroke-linejoin="round" stroke-miterlimit="10" fill="#E97132"/><path d="M4631.93 4271.57 4640.93 4289.57 4622.93 4289.57Z" stroke="#E97132" stroke-width="3.4375" stroke-linejoin="round" stroke-miterlimit="10" fill="#E97132"/><path d="M4680.93 4245.57 4689.93 4263.57 4671.93 4263.57Z" stroke="#E97132" stroke-width="3.4375" stroke-linejoin="round" stroke-miterlimit="10" fill="#E97132"/><path d="M4729.93 4219.57 4738.93 4237.57 4720.93 4237.57Z" stroke="#E97132" stroke-width="3.4375" stroke-linejoin="round" stroke-miterlimit="10" fill="#E97132"/><path d="M4778.93 4193.57 4787.93 4211.57 4769.93 4211.57Z" stroke="#E97132" stroke-width="3.4375" stroke-linejoin="round" stroke-miterlimit="10" fill="#E97132"/><path d="M4827.93 4167.57 4836.93 4185.57 4818.93 4185.57Z" stroke="#E97132" stroke-width="3.4375" stroke-linejoin="round" stroke-miterlimit="10" fill="#E97132"/><path d="M4876.93 4141.57 4885.93 4159.57 4867.93 4159.57Z" stroke="#E97132" stroke-width="3.4375" stroke-linejoin="round" stroke-miterlimit="10" fill="#E97132"/><path d="M4925.93 4115.57 4934.93 4133.57 4916.93 4133.57Z" stroke="#E97132" stroke-width="3.4375" stroke-linejoin="round" stroke-miterlimit="10" fill="#E97132"/><path d="M4974.93 4089.57 4983.93 4107.57 4965.93 4107.57Z" stroke="#E97132" stroke-width="3.4375" stroke-linejoin="round" stroke-miterlimit="10" fill="#E97132"/><path d="M5023.93 4063.57 5032.93 4081.57 5014.93 4081.57Z" stroke="#E97132" stroke-width="3.4375" stroke-linejoin="round" stroke-miterlimit="10" fill="#E97132"/><path d="M5071.93 4037.57 5080.93 4055.57 5062.93 4055.57Z" stroke="#E97132" stroke-width="3.4375" stroke-linejoin="round" stroke-miterlimit="10" fill="#E97132"/><path d="M5120.93 4011.57 5129.93 4029.57 5111.93 4029.57Z" stroke="#E97132" stroke-width="3.4375" stroke-linejoin="round" stroke-miterlimit="10" fill="#E97132"/><path d="M5169.93 3985.57 5178.93 4003.57 5160.93 4003.57Z" stroke="#E97132" stroke-width="3.4375" stroke-linejoin="round" stroke-miterlimit="10" fill="#E97132"/><path d="M5218.93 3959.57 5227.93 3977.57 5209.93 3977.57Z" stroke="#E97132" stroke-width="3.4375" stroke-linejoin="round" stroke-miterlimit="10" fill="#E97132"/><path d="M5267.93 3934.57 5276.93 3952.57 5258.93 3952.57Z" stroke="#E97132" stroke-width="3.4375" stroke-linejoin="round" stroke-miterlimit="10" fill="#E97132"/><path d="M5316.93 3908.57 5325.93 3926.57 5307.93 3926.57Z" stroke="#E97132" stroke-width="3.4375" stroke-linejoin="round" stroke-miterlimit="10" fill="#E97132"/><path d="M5365.93 3882.57 5374.93 3900.57 5356.93 3900.57Z" stroke="#E97132" stroke-width="3.4375" stroke-linejoin="round" stroke-miterlimit="10" fill="#E97132"/><path d="M5414.93 3856.57 5423.93 3874.57 5405.93 3874.57Z" stroke="#E97132" stroke-width="3.4375" stroke-linejoin="round" stroke-miterlimit="10" fill="#E97132"/><path d="M5463.93 3830.57 5472.93 3848.57 5454.93 3848.57Z" stroke="#E97132" stroke-width="3.4375" stroke-linejoin="round" stroke-miterlimit="10" fill="#E97132"/><path d="M5512.93 3804.57 5521.93 3822.57 5503.93 3822.57Z" stroke="#E97132" stroke-width="3.4375" stroke-linejoin="round" stroke-miterlimit="10" fill="#E97132"/><path d="M5561.93 3778.57 5570.93 3796.57 5552.93 3796.57Z" stroke="#E97132" stroke-width="3.4375" stroke-linejoin="round" stroke-miterlimit="10" fill="#E97132"/><path d="M5610.93 3752.57 5619.93 3770.57 5601.93 3770.57Z" stroke="#E97132" stroke-width="3.4375" stroke-linejoin="round" stroke-miterlimit="10" fill="#E97132"/><path d="M5659.93 3726.57 5668.93 3744.57 5650.93 3744.57Z" stroke="#E97132" stroke-width="3.4375" stroke-linejoin="round" stroke-miterlimit="10" fill="#E97132"/><path d="M5708.93 3700.57 5717.93 3718.57 5699.93 3718.57Z" stroke="#E97132" stroke-width="3.4375" stroke-linejoin="round" stroke-miterlimit="10" fill="#E97132"/><path d="M5757.93 3674.57 5766.93 3692.57 5748.93 3692.57Z" stroke="#E97132" stroke-width="3.4375" stroke-linejoin="round" stroke-miterlimit="10" fill="#E97132"/><path d="M5805.93 3648.57 5814.93 3666.57 5796.93 3666.57Z" stroke="#E97132" stroke-width="3.4375" stroke-linejoin="round" stroke-miterlimit="10" fill="#E97132"/><path d="M5854.93 3622.57 5863.93 3640.57 5845.93 3640.57Z" stroke="#E97132" stroke-width="3.4375" stroke-linejoin="round" stroke-miterlimit="10" fill="#E97132"/><path d="M5903.93 3596.57 5912.93 3614.57 5894.93 3614.57Z" stroke="#E97132" stroke-width="3.4375" stroke-linejoin="round" stroke-miterlimit="10" fill="#E97132"/><path d="M5952.93 3570.57 5961.93 3588.57 5943.93 3588.57Z" stroke="#E97132" stroke-width="3.4375" stroke-linejoin="round" stroke-miterlimit="10" fill="#E97132"/><path d="M6001.93 3544.57 6010.93 3562.57 5992.93 3562.57Z" stroke="#E97132" stroke-width="3.4375" stroke-linejoin="round" stroke-miterlimit="10" fill="#E97132"/><path d="M6050.93 3518.57 6059.93 3536.57 6041.93 3536.57Z" stroke="#E97132" stroke-width="3.4375" stroke-linejoin="round" stroke-miterlimit="10" fill="#E97132"/></g><g><path d="M4142.5 4538.5 4191.64 4508.65 4240.64 4495.65 4288.64 4482.65 4337.64 4453.65 4386.64 4440.65 4435.65 4414.65 4484.65 4399.64 4533.65 4360.64 4582.65 4346.64 4631.65 4318.64 4680.65 4292.64 4729.66 4265.64 4778.66 4239.64 4827.66 4198.64 4876.66 4185.64 4925.66 4145.64 4973.66 4119.64 5022.67 4105.63 5071.67 4079.63 5120.67 4052.63 5169.67 4026.63 5218.67 3986.63 5267.67 3973.63 5316.67 3947.63 5365.68 3921.63 5414.68 3880.63 5463.68 3854.63 5512.68 3828.63 5561.68 3802.62 5610.68 3774.62 5658.69 3748.62 5707.69 3719.62 5756.69 3694.62 5805.69 3665.62 5854.69 3640.62 5903.69 3611.62 5952.7 3598.62 6001.7 3557.5 6050.5 3557.5" stroke="#196B24" stroke-width="4.58333" stroke-linecap="round" stroke-linejoin="round" stroke-miterlimit="10" fill="none"/></g><g><path d="M4150.93 4538.07C4150.93 4542.77 4147.12 4546.57 4142.43 4546.57 4137.73 4546.57 4133.93 4542.77 4133.93 4538.07 4133.93 4533.38 4137.73 4529.57 4142.43 4529.57 4147.12 4529.57 4150.93 4533.38 4150.93 4538.07Z" stroke="#196B24" stroke-width="3.4375" stroke-linejoin="round" stroke-miterlimit="10" fill="#196B24"/><path d="M4199.93 4508.07C4199.93 4512.77 4196.12 4516.57 4191.43 4516.57 4186.74 4516.57 4182.93 4512.77 4182.93 4508.07 4182.93 4503.38 4186.74 4499.57 4191.43 4499.57 4196.12 4499.57 4199.93 4503.38 4199.93 4508.07Z" stroke="#196B24" stroke-width="3.4375" stroke-linejoin="round" stroke-miterlimit="10" fill="#196B24"/><path d="M4248.93 4495.07C4248.93 4499.77 4245.12 4503.57 4240.43 4503.57 4235.73 4503.57 4231.93 4499.77 4231.93 4495.07 4231.93 4490.38 4235.73 4486.57 4240.43 4486.57 4245.12 4486.57 4248.93 4490.38 4248.93 4495.07Z" stroke="#196B24" stroke-width="3.4375" stroke-linejoin="round" stroke-miterlimit="10" fill="#196B24"/><path d="M4297.93 4483.07C4297.93 4487.77 4294.12 4491.57 4289.43 4491.57 4284.74 4491.57 4280.93 4487.77 4280.93 4483.07 4280.93 4478.38 4284.74 4474.57 4289.43 4474.57 4294.12 4474.57 4297.93 4478.38 4297.93 4483.07Z" stroke="#196B24" stroke-width="3.4375" stroke-linejoin="round" stroke-miterlimit="10" fill="#196B24"/><path d="M4346.93 4453.07C4346.93 4457.77 4343.12 4461.57 4338.43 4461.57 4333.73 4461.57 4329.93 4457.77 4329.93 4453.07 4329.93 4448.38 4333.73 4444.57 4338.43 4444.57 4343.12 4444.57 4346.93 4448.38 4346.93 4453.07Z" stroke="#196B24" stroke-width="3.4375" stroke-linejoin="round" stroke-miterlimit="10" fill="#196B24"/><path d="M4394.93 4440.07C4394.93 4444.77 4391.12 4448.57 4386.43 4448.57 4381.73 4448.57 4377.93 4444.77 4377.93 4440.07 4377.93 4435.38 4381.73 4431.57 4386.43 4431.57 4391.12 4431.57 4394.93 4435.38 4394.93 4440.07Z" stroke="#196B24" stroke-width="3.4375" stroke-linejoin="round" stroke-miterlimit="10" fill="#196B24"/><path d="M4443.93 4414.07C4443.93 4418.77 4440.12 4422.57 4435.43 4422.57 4430.73 4422.57 4426.93 4418.77 4426.93 4414.07 4426.93 4409.38 4430.73 4405.57 4435.43 4405.57 4440.12 4405.57 4443.93 4409.38 4443.93 4414.07Z" stroke="#196B24" stroke-width="3.4375" stroke-linejoin="round" stroke-miterlimit="10" fill="#196B24"/><path d="M4492.93 4399.07C4492.93 4403.77 4489.12 4407.57 4484.43 4407.57 4479.73 4407.57 4475.93 4403.77 4475.93 4399.07 4475.93 4394.38 4479.73 4390.57 4484.43 4390.57 4489.12 4390.57 4492.93 4394.38 4492.93 4399.07Z" stroke="#196B24" stroke-width="3.4375" stroke-linejoin="round" stroke-miterlimit="10" fill="#196B24"/><path d="M4541.93 4360.07C4541.93 4364.77 4538.12 4368.57 4533.43 4368.57 4528.73 4368.57 4524.93 4364.77 4524.93 4360.07 4524.93 4355.38 4528.73 4351.57 4533.43 4351.57 4538.12 4351.57 4541.93 4355.38 4541.93 4360.07Z" stroke="#196B24" stroke-width="3.4375" stroke-linejoin="round" stroke-miterlimit="10" fill="#196B24"/><path d="M4590.93 4346.07C4590.93 4350.77 4587.12 4354.57 4582.43 4354.57 4577.73 4354.57 4573.93 4350.77 4573.93 4346.07 4573.93 4341.38 4577.73 4337.57 4582.43 4337.57 4587.12 4337.57 4590.93 4341.38 4590.93 4346.07Z" stroke="#196B24" stroke-width="3.4375" stroke-linejoin="round" stroke-miterlimit="10" fill="#196B24"/><path d="M4639.93 4318.07C4639.93 4322.77 4636.12 4326.57 4631.43 4326.57 4626.74 4326.57 4622.93 4322.77 4622.93 4318.07 4622.93 4313.38 4626.74 4309.57 4631.43 4309.57 4636.12 4309.57 4639.93 4313.38 4639.93 4318.07Z" stroke="#196B24" stroke-width="3.4375" stroke-linejoin="round" stroke-miterlimit="10" fill="#196B24"/><path d="M4688.93 4292.07C4688.93 4296.77 4685.12 4300.57 4680.43 4300.57 4675.73 4300.57 4671.93 4296.77 4671.93 4292.07 4671.93 4287.38 4675.73 4283.57 4680.43 4283.57 4685.12 4283.57 4688.93 4287.38 4688.93 4292.07Z" stroke="#196B24" stroke-width="3.4375" stroke-linejoin="round" stroke-miterlimit="10" fill="#196B24"/><path d="M4737.93 4266.07C4737.93 4270.77 4734.12 4274.57 4729.43 4274.57 4724.74 4274.57 4720.93 4270.77 4720.93 4266.07 4720.93 4261.38 4724.74 4257.57 4729.43 4257.57 4734.12 4257.57 4737.93 4261.38 4737.93 4266.07Z" stroke="#196B24" stroke-width="3.4375" stroke-linejoin="round" stroke-miterlimit="10" fill="#196B24"/><path d="M4786.93 4239.07C4786.93 4243.77 4783.12 4247.57 4778.43 4247.57 4773.73 4247.57 4769.93 4243.77 4769.93 4239.07 4769.93 4234.38 4773.73 4230.57 4778.43 4230.57 4783.12 4230.57 4786.93 4234.38 4786.93 4239.07Z" stroke="#196B24" stroke-width="3.4375" stroke-linejoin="round" stroke-miterlimit="10" fill="#196B24"/><path d="M4835.93 4198.07C4835.93 4202.77 4832.12 4206.57 4827.43 4206.57 4822.74 4206.57 4818.93 4202.77 4818.93 4198.07 4818.93 4193.38 4822.74 4189.57 4827.43 4189.57 4832.12 4189.57 4835.93 4193.38 4835.93 4198.07Z" stroke="#196B24" stroke-width="3.4375" stroke-linejoin="round" stroke-miterlimit="10" fill="#196B24"/><path d="M4884.93 4185.07C4884.93 4189.77 4881.12 4193.57 4876.43 4193.57 4871.73 4193.57 4867.93 4189.77 4867.93 4185.07 4867.93 4180.38 4871.73 4176.57 4876.43 4176.57 4881.12 4176.57 4884.93 4180.38 4884.93 4185.07Z" stroke="#196B24" stroke-width="3.4375" stroke-linejoin="round" stroke-miterlimit="10" fill="#196B24"/><path d="M4933.93 4145.07C4933.93 4149.77 4930.12 4153.57 4925.43 4153.57 4920.73 4153.57 4916.93 4149.77 4916.93 4145.07 4916.93 4140.38 4920.73 4136.57 4925.43 4136.57 4930.12 4136.57 4933.93 4140.38 4933.93 4145.07Z" stroke="#196B24" stroke-width="3.4375" stroke-linejoin="round" stroke-miterlimit="10" fill="#196B24"/><path d="M4982.93 4119.07C4982.93 4123.77 4979.12 4127.57 4974.43 4127.57 4969.73 4127.57 4965.93 4123.77 4965.93 4119.07 4965.93 4114.38 4969.73 4110.57 4974.43 4110.57 4979.12 4110.57 4982.93 4114.38 4982.93 4119.07Z" stroke="#196B24" stroke-width="3.4375" stroke-linejoin="round" stroke-miterlimit="10" fill="#196B24"/><path d="M5031.93 4106.07C5031.93 4110.77 5028.12 4114.57 5023.43 4114.57 5018.73 4114.57 5014.93 4110.77 5014.93 4106.07 5014.93 4101.38 5018.73 4097.57 5023.43 4097.57 5028.12 4097.57 5031.93 4101.38 5031.93 4106.07Z" stroke="#196B24" stroke-width="3.4375" stroke-linejoin="round" stroke-miterlimit="10" fill="#196B24"/><path d="M5079.93 4079.07C5079.93 4083.77 5076.12 4087.57 5071.43 4087.57 5066.74 4087.57 5062.93 4083.77 5062.93 4079.07 5062.93 4074.38 5066.74 4070.57 5071.43 4070.57 5076.12 4070.57 5079.93 4074.38 5079.93 4079.07Z" stroke="#196B24" stroke-width="3.4375" stroke-linejoin="round" stroke-miterlimit="10" fill="#196B24"/><path d="M5128.93 4053.07C5128.93 4057.77 5125.12 4061.57 5120.43 4061.57 5115.73 4061.57 5111.93 4057.77 5111.93 4053.07 5111.93 4048.38 5115.73 4044.57 5120.43 4044.57 5125.12 4044.57 5128.93 4048.38 5128.93 4053.07Z" stroke="#196B24" stroke-width="3.4375" stroke-linejoin="round" stroke-miterlimit="10" fill="#196B24"/><path d="M5177.93 4026.07C5177.93 4030.77 5174.12 4034.57 5169.43 4034.57 5164.74 4034.57 5160.93 4030.77 5160.93 4026.07 5160.93 4021.38 5164.74 4017.57 5169.43 4017.57 5174.12 4017.57 5177.93 4021.38 5177.93 4026.07Z" stroke="#196B24" stroke-width="3.4375" stroke-linejoin="round" stroke-miterlimit="10" fill="#196B24"/><path d="M5226.93 3987.07C5226.93 3991.77 5223.12 3995.57 5218.43 3995.57 5213.73 3995.57 5209.93 3991.77 5209.93 3987.07 5209.93 3982.38 5213.73 3978.57 5218.43 3978.57 5223.12 3978.57 5226.93 3982.38 5226.93 3987.07Z" stroke="#196B24" stroke-width="3.4375" stroke-linejoin="round" stroke-miterlimit="10" fill="#196B24"/><path d="M5275.93 3973.07C5275.93 3977.76 5272.12 3981.57 5267.43 3981.57 5262.74 3981.57 5258.93 3977.76 5258.93 3973.07 5258.93 3968.38 5262.74 3964.57 5267.43 3964.57 5272.12 3964.57 5275.93 3968.38 5275.93 3973.07Z" stroke="#196B24" stroke-width="3.4375" stroke-linejoin="round" stroke-miterlimit="10" fill="#196B24"/><path d="M5324.93 3947.07C5324.93 3951.77 5321.12 3955.57 5316.43 3955.57 5311.73 3955.57 5307.93 3951.77 5307.93 3947.07 5307.93 3942.38 5311.73 3938.57 5316.43 3938.57 5321.12 3938.57 5324.93 3942.38 5324.93 3947.07Z" stroke="#196B24" stroke-width="3.4375" stroke-linejoin="round" stroke-miterlimit="10" fill="#196B24"/><path d="M5373.93 3921.07C5373.93 3925.77 5370.12 3929.57 5365.43 3929.57 5360.73 3929.57 5356.93 3925.77 5356.93 3921.07 5356.93 3916.38 5360.73 3912.57 5365.43 3912.57 5370.12 3912.57 5373.93 3916.38 5373.93 3921.07Z" stroke="#196B24" stroke-width="3.4375" stroke-linejoin="round" stroke-miterlimit="10" fill="#196B24"/><path d="M5422.93 3880.07C5422.93 3884.77 5419.12 3888.57 5414.43 3888.57 5409.73 3888.57 5405.93 3884.77 5405.93 3880.07 5405.93 3875.38 5409.73 3871.57 5414.43 3871.57 5419.12 3871.57 5422.93 3875.38 5422.93 3880.07Z" stroke="#196B24" stroke-width="3.4375" stroke-linejoin="round" stroke-miterlimit="10" fill="#196B24"/><path d="M5471.93 3854.07C5471.93 3858.77 5468.12 3862.57 5463.43 3862.57 5458.73 3862.57 5454.93 3858.77 5454.93 3854.07 5454.93 3849.38 5458.73 3845.57 5463.43 3845.57 5468.12 3845.57 5471.93 3849.38 5471.93 3854.07Z" stroke="#196B24" stroke-width="3.4375" stroke-linejoin="round" stroke-miterlimit="10" fill="#196B24"/><path d="M5520.93 3828.07C5520.93 3832.77 5517.12 3836.57 5512.43 3836.57 5507.73 3836.57 5503.93 3832.77 5503.93 3828.07 5503.93 3823.38 5507.73 3819.57 5512.43 3819.57 5517.12 3819.57 5520.93 3823.38 5520.93 3828.07Z" stroke="#196B24" stroke-width="3.4375" stroke-linejoin="round" stroke-miterlimit="10" fill="#196B24"/><path d="M5569.93 3802.07C5569.93 3806.77 5566.12 3810.57 5561.43 3810.57 5556.73 3810.57 5552.93 3806.77 5552.93 3802.07 5552.93 3797.38 5556.73 3793.57 5561.43 3793.57 5566.12 3793.57 5569.93 3797.38 5569.93 3802.07Z" stroke="#196B24" stroke-width="3.4375" stroke-linejoin="round" stroke-miterlimit="10" fill="#196B24"/><path d="M5618.93 3774.07C5618.93 3778.76 5615.12 3782.57 5610.43 3782.57 5605.74 3782.57 5601.93 3778.76 5601.93 3774.07 5601.93 3769.38 5605.74 3765.57 5610.43 3765.57 5615.12 3765.57 5618.93 3769.38 5618.93 3774.07Z" stroke="#196B24" stroke-width="3.4375" stroke-linejoin="round" stroke-miterlimit="10" fill="#196B24"/><path d="M5667.93 3748.07C5667.93 3752.77 5664.12 3756.57 5659.43 3756.57 5654.73 3756.57 5650.93 3752.77 5650.93 3748.07 5650.93 3743.38 5654.73 3739.57 5659.43 3739.57 5664.12 3739.57 5667.93 3743.38 5667.93 3748.07Z" stroke="#196B24" stroke-width="3.4375" stroke-linejoin="round" stroke-miterlimit="10" fill="#196B24"/><path d="M5716.93 3719.07C5716.93 3723.76 5713.12 3727.57 5708.43 3727.57 5703.74 3727.57 5699.93 3723.76 5699.93 3719.07 5699.93 3714.38 5703.74 3710.57 5708.43 3710.57 5713.12 3710.57 5716.93 3714.38 5716.93 3719.07Z" stroke="#196B24" stroke-width="3.4375" stroke-linejoin="round" stroke-miterlimit="10" fill="#196B24"/><path d="M5765.93 3694.07C5765.93 3698.77 5762.12 3702.57 5757.43 3702.57 5752.73 3702.57 5748.93 3698.77 5748.93 3694.07 5748.93 3689.38 5752.73 3685.57 5757.43 3685.57 5762.12 3685.57 5765.93 3689.38 5765.93 3694.07Z" stroke="#196B24" stroke-width="3.4375" stroke-linejoin="round" stroke-miterlimit="10" fill="#196B24"/><path d="M5813.93 3665.07C5813.93 3669.76 5810.12 3673.57 5805.43 3673.57 5800.73 3673.57 5796.93 3669.76 5796.93 3665.07 5796.93 3660.38 5800.73 3656.57 5805.43 3656.57 5810.12 3656.57 5813.93 3660.38 5813.93 3665.07Z" stroke="#196B24" stroke-width="3.4375" stroke-linejoin="round" stroke-miterlimit="10" fill="#196B24"/><path d="M5862.93 3640.07C5862.93 3644.77 5859.12 3648.57 5854.43 3648.57 5849.73 3648.57 5845.93 3644.77 5845.93 3640.07 5845.93 3635.38 5849.73 3631.57 5854.43 3631.57 5859.12 3631.57 5862.93 3635.38 5862.93 3640.07Z" stroke="#196B24" stroke-width="3.4375" stroke-linejoin="round" stroke-miterlimit="10" fill="#196B24"/><path d="M5911.93 3611.07C5911.93 3615.76 5908.12 3619.57 5903.43 3619.57 5898.73 3619.57 5894.93 3615.76 5894.93 3611.07 5894.93 3606.38 5898.73 3602.57 5903.43 3602.57 5908.12 3602.57 5911.93 3606.38 5911.93 3611.07Z" stroke="#196B24" stroke-width="3.4375" stroke-linejoin="round" stroke-miterlimit="10" fill="#196B24"/><path d="M5960.93 3598.07C5960.93 3602.76 5957.12 3606.57 5952.43 3606.57 5947.73 3606.57 5943.93 3602.76 5943.93 3598.07 5943.93 3593.38 5947.73 3589.57 5952.43 3589.57 5957.12 3589.57 5960.93 3593.38 5960.93 3598.07Z" stroke="#196B24" stroke-width="3.4375" stroke-linejoin="round" stroke-miterlimit="10" fill="#196B24"/><path d="M6009.93 3557.07C6009.93 3561.77 6006.12 3565.57 6001.43 3565.57 5996.73 3565.57 5992.93 3561.77 5992.93 3557.07 5992.93 3552.38 5996.73 3548.57 6001.43 3548.57 6006.12 3548.57 6009.93 3552.38 6009.93 3557.07Z" stroke="#196B24" stroke-width="3.4375" stroke-linejoin="round" stroke-miterlimit="10" fill="#196B24"/><path d="M6058.93 3557.07C6058.93 3561.77 6055.12 3565.57 6050.43 3565.57 6045.74 3565.57 6041.93 3561.77 6041.93 3557.07 6041.93 3552.38 6045.74 3548.57 6050.43 3548.57 6055.12 3548.57 6058.93 3552.38 6058.93 3557.07Z" stroke="#196B24" stroke-width="3.4375" stroke-linejoin="round" stroke-miterlimit="10" fill="#196B24"/></g><g><text fill="#595959" font-family="Aptos Narrow,Aptos Narrow_MSFontService,sans-serif" font-weight="400" font-stretch="semi-condensed" font-size="41" transform="matrix(1 0 0 1 4083.31 4552)">0</text></g><g><text fill="#595959" font-family="Aptos Narrow,Aptos Narrow_MSFontService,sans-serif" font-weight="400" font-stretch="semi-condensed" font-size="41" transform="matrix(1 0 0 1 4083.31 4418)">5</text></g><g><text fill="#595959" font-family="Aptos Narrow,Aptos Narrow_MSFontService,sans-serif" font-weight="400" font-stretch="semi-condensed" font-size="41" transform="matrix(1 0 0 1 4062.41 4283)">10</text></g><g><text fill="#595959" font-family="Aptos Narrow,Aptos Narrow_MSFontService,sans-serif" font-weight="400" font-stretch="semi-condensed" font-size="41" transform="matrix(1 0 0 1 4062.41 4149)">15</text></g><g><text fill="#595959" font-family="Aptos Narrow,Aptos Narrow_MSFontService,sans-serif" font-weight="400" font-stretch="semi-condensed" font-size="41" transform="matrix(1 0 0 1 4062.41 4015)">20</text></g><g><text fill="#595959" font-family="Aptos Narrow,Aptos Narrow_MSFontService,sans-serif" font-weight="400" font-stretch="semi-condensed" font-size="41" transform="matrix(1 0 0 1 4062.41 3880)">25</text></g><g><text fill="#595959" font-family="Aptos Narrow,Aptos Narrow_MSFontService,sans-serif" font-weight="400" font-stretch="semi-condensed" font-size="41" transform="matrix(1 0 0 1 4062.41 3746)">30</text></g><g><text fill="#595959" font-family="Aptos Narrow,Aptos Narrow_MSFontService,sans-serif" font-weight="400" font-stretch="semi-condensed" font-size="41" transform="matrix(1 0 0 1 4062.41 3612)">35</text></g><g><text fill="#595959" font-family="Aptos Narrow,Aptos Narrow_MSFontService,sans-serif" font-weight="400" font-stretch="semi-condensed" font-size="41" transform="matrix(1 0 0 1 4062.41 3478)">40</text></g><g><text fill="#595959" font-family="Aptos Narrow,Aptos Narrow_MSFontService,sans-serif" font-weight="400" font-stretch="semi-condensed" font-size="41" transform="matrix(1 0 0 1 4131.84 4605)">0</text></g><g><text fill="#595959" font-family="Aptos Narrow,Aptos Narrow_MSFontService,sans-serif" font-weight="400" font-stretch="semi-condensed" font-size="41" transform="matrix(1 0 0 1 4376.5 4605)">5</text></g><g><text fill="#595959" font-family="Aptos Narrow,Aptos Narrow_MSFontService,sans-serif" font-weight="400" font-stretch="semi-condensed" font-size="41" transform="matrix(1 0 0 1 4610.7 4605)">10</text></g><g><text fill="#595959" font-family="Aptos Narrow,Aptos Narrow_MSFontService,sans-serif" font-weight="400" font-stretch="semi-condensed" font-size="41" transform="matrix(1 0 0 1 4855.36 4605)">15</text></g><g><text fill="#595959" font-family="Aptos Narrow,Aptos Narrow_MSFontService,sans-serif" font-weight="400" font-stretch="semi-condensed" font-size="41" transform="matrix(1 0 0 1 5100.01 4605)">20</text></g><g><text fill="#595959" font-family="Aptos Narrow,Aptos Narrow_MSFontService,sans-serif" font-weight="400" font-stretch="semi-condensed" font-size="41" transform="matrix(1 0 0 1 5344.66 4605)">25</text></g><g><text fill="#595959" font-family="Aptos Narrow,Aptos Narrow_MSFontService,sans-serif" font-weight="400" font-stretch="semi-condensed" font-size="41" transform="matrix(1 0 0 1 5589.32 4605)">30</text></g><g><text fill="#595959" font-family="Aptos Narrow,Aptos Narrow_MSFontService,sans-serif" font-weight="400" font-stretch="semi-condensed" font-size="41" transform="matrix(1 0 0 1 5833.97 4605)">35</text></g><g><text fill="#595959" font-family="Aptos Narrow,Aptos Narrow_MSFontService,sans-serif" font-weight="400" font-stretch="semi-condensed" font-size="41" transform="matrix(1 0 0 1 6078.63 4605)">40</text></g><g><text fill="#595959" font-family="Aptos Narrow,Aptos Narrow_MSFontService,sans-serif" font-weight="400" font-stretch="semi-condensed" font-size="41" transform="matrix(1 0 0 1 6323.28 4605)">45</text></g><g><text fill="#595959" font-family="Aptos Narrow,Aptos Narrow_MSFontService,sans-serif" font-weight="400" font-stretch="semi-condensed" font-size="46" transform="matrix(6.12323e-17 -1 1 6.12323e-17 4035.71 4058)">Kąt [</text></g><g><text fill="#595959" font-family="Aptos Narrow,Aptos Narrow_MSFontService,sans-serif" font-weight="700" font-stretch="semi-condensed" font-size="46" transform="matrix(6.12323e-17 -1 1 6.12323e-17 4035.71 3978)">°</text></g><g><text fill="#595959" font-family="Aptos Narrow,Aptos Narrow_MSFontService,sans-serif" font-weight="400" font-stretch="semi-condensed" font-size="46" transform="matrix(6.12323e-17 -1 1 6.12323e-17 4035.71 3960)">]</text></g><g><text fill="#595959" font-family="Aptos Narrow,Aptos Narrow_MSFontService,sans-serif" font-weight="400" font-stretch="semi-condensed" font-size="46" transform="matrix(1 0 0 1 5102.04 4673)">Indeks pomiaru</text></g><g><text fill="#595959" font-family="Aptos Narrow,Aptos Narrow_MSFontService,sans-serif" font-weight="400" font-stretch="semi-condensed" font-size="64" transform="matrix(1 0 0 1 4567.26 3390)">Zestawienie metod pomiarów kąta obrotu serwa</text></g><g><path d="M4510.5 4782.5 4626.5 4782.5" stroke="#156082" stroke-width="6.875" stroke-linecap="round" stroke-linejoin="round" stroke-miterlimit="10" fill="none" fill-rule="evenodd"/></g><g><path d="M4576 4781.5C4576 4786.19 4572.19 4790 4567.5 4790 4562.81 4790 4559 4786.19 4559 4781.5 4559 4776.81 4562.81 4773 4567.5 4773 4572.19 4773 4576 4776.81 4576 4781.5Z" stroke="#156082" stroke-width="3.4375" stroke-linejoin="round" stroke-miterlimit="10" fill="#156082"/></g><g><text fill="#595959" font-family="Aptos Narrow,Aptos Narrow_MSFontService,sans-serif" font-weight="400" font-stretch="semi-condensed" font-size="41" transform="matrix(1 0 0 1 4638.82 4794)">Odczyt z serwa</text></g><g><path d="M4961.5 4782.5 5076.5 4782.5" stroke="#E97132" stroke-width="3.4375" stroke-linecap="round" stroke-linejoin="round" stroke-miterlimit="10" stroke-dasharray="24.0625 13.75" fill="none" fill-rule="evenodd"/></g><g><path d="M5019.5 4773.5 5028.5 4791.5 5010.5 4791.5Z" stroke="#E97132" stroke-width="3.4375" stroke-linejoin="round" stroke-miterlimit="10" fill="#E97132"/></g><g><text fill="#595959" font-family="Aptos Narrow,Aptos Narrow_MSFontService,sans-serif" font-weight="400" font-stretch="semi-condensed" font-size="41" transform="matrix(1 0 0 1 5089.65 4794)">Zadany kąt</text></g><g><path d="M5345.5 4782.5 5460.5 4782.5" stroke="#196B24" stroke-width="4.58333" stroke-linecap="round" stroke-linejoin="round" stroke-miterlimit="10" fill="none" fill-rule="evenodd"/></g><g><path d="M5410 4781.5C5410 4786.19 5406.19 4790 5401.5 4790 5396.81 4790 5393 4786.19 5393 4781.5 5393 4776.81 5396.81 4773 5401.5 4773 5406.19 4773 5410 4776.81 5410 4781.5Z" stroke="#196B24" stroke-width="3.4375" stroke-linejoin="round" stroke-miterlimit="10" fill="#196B24"/></g><g><text fill="#595959" font-family="Aptos Narrow,Aptos Narrow_MSFontService,sans-serif" font-weight="400" font-stretch="semi-condensed" font-size="41" transform="matrix(1 0 0 1 5473.35 4794)">Odczyt z akcelerometru</text></g><rect x="3935.5" y="3296.5" width="2480" height="1552" stroke="#D9D9D9" stroke-width="3.4375" stroke-linejoin="round" stroke-miterlimit="10" fill="none"/></g></svg>